<svg xmlns="http://www.w3.org/2000/svg" width="25px"
      height="25px"
      stroke="#fff"
      fill="#fff"  viewBox="0 0 48 48" ><path d="M 41.650391 8.015625 C 41.403638 8.0042719 41.150731 8.0292351 40.904297 8.0898438 C 40.411428 8.2110609 39.942876 8.4774417 39.591797 8.8945312 L 26.597656 23.863281 L 26.589844 23.871094 C 25.290274 25.415372 26.481809 27.978764 28.5 27.980469 L 28.501953 27.980469 L 37.341797 27.994141 C 38.224627 27.994141 39.084776 27.641902 39.761719 27.115234 L 42.904297 24.849609 L 42.988281 24.765625 C 43.646141 24.109515 44.015625 23.217176 44.015625 22.289062 L 44.003906 10.505859 C 44.003906 9.4155656 43.255669 8.4826583 42.361328 8.15625 C 42.137743 8.0746479 41.897143 8.0269781 41.650391 8.015625 z M 6.3710938 8.0214844 C 6.1219866 8.0287625 5.8788156 8.0728385 5.6523438 8.1523438 C 4.7464562 8.4703648 3.9804688 9.4095889 3.9804688 10.511719 L 3.9804688 10.513672 L 3.9980469 22.410156 C 3.9984776 23.204893 4.2684718 23.974312 4.7636719 24.59375 L 15.9375 38.683594 L 15.939453 38.6875 C 16.60212 39.514155 17.608283 40 18.671875 40 L 28.46875 40.005859 C 29.459168 40.005859 30.334837 39.395776 30.720703 38.597656 C 31.10657 37.799537 31.039688 36.729786 30.419922 35.955078 L 30.416016 35.951172 L 8.4316406 8.9492188 C 8.0871799 8.51908 7.6186523 8.2406732 7.1230469 8.109375 C 6.8752442 8.0437259 6.6202009 8.0142062 6.3710938 8.0214844 z M 41.005859 11.841797 L 41.015625 22.291016 C 41.015182 22.409855 40.960485 22.519491 40.882812 22.609375 L 37.939453 24.730469 L 37.917969 24.748047 C 37.631735 24.970739 37.520045 24.99401 37.34375 24.994141 L 29.597656 24.982422 L 41.005859 11.841797 z M 6.9824219 11.921875 L 27.404297 37.005859 L 18.671875 37 C 18.519467 37 18.378536 36.9319 18.28125 36.810547 L 7.109375 22.722656 L 7.1074219 22.720703 C 7.0370159 22.632633 6.9980469 22.520793 6.9980469 22.408203 L 6.9980469 22.40625 L 6.9824219 11.921875 z"/></svg>